<?xml version="1.0" encoding="UTF-8"?>
<svg version="1.1" xmlns="http://www.w3.org/2000/svg" width="500" height="500">
<path d="M0 0 C1.28125 1.46484375 1.28125 1.46484375 1.28125 3.46484375 C1.94125 3.46484375 2.60125 3.46484375 3.28125 3.46484375 C8.47539306 13.18774877 12.41796632 22.86162737 15.78125 33.33984375 C16.25781918 34.8027569 16.73471231 36.26556456 17.21191406 37.72827148 C18.58860577 41.9674532 19.93773609 46.21505358 21.28125 50.46484375 C21.63251953 51.56747559 21.98378906 52.67010742 22.34570312 53.80615234 C27.80111463 71.09375769 31.6797305 88.71253115 35.28125 106.46484375 C35.4757373 107.41311035 35.67022461 108.36137695 35.87060547 109.33837891 C37.34416004 116.91526546 38.07234486 124.53373971 38.78125 132.21484375 C39.72705926 142.33812084 40.87014363 152.39728026 42.28125 162.46484375 C43.4458374 162.47942627 44.6104248 162.49400879 45.81030273 162.5090332 C50.16607063 162.56737687 54.52134091 162.64460523 58.87670898 162.72729492 C60.75520704 162.76037559 62.63380046 162.78845902 64.51245117 162.8112793 C67.22615889 162.84513761 69.93900576 162.8974659 72.65234375 162.953125 C73.48084335 162.95951492 74.30934296 162.96590485 75.16294861 162.9724884 C80.308546 163.09978045 84.52369135 163.97874846 89.32600403 165.85061646 C92.48603349 166.84331833 95.07659647 166.12282048 98.28125 165.46484375 C102.19181298 165.04356017 106.11194981 164.73138947 110.03125 164.40234375 C111.56265625 164.26602539 111.56265625 164.26602539 113.125 164.12695312 C119.81685184 163.56222197 126.56601187 163.04178058 133.28125 163.46484375 C134.28125 164.46484375 134.28125 164.46484375 134.37026978 166.2232666 C134.35330048 166.99199097 134.33633118 167.76071533 134.31884766 168.55273438 C134.30192368 169.42849625 134.28499969 170.30425812 134.26756287 171.20655823 C134.23179893 172.64925331 134.23179893 172.64925331 134.1953125 174.12109375 C134.17457169 175.11701035 134.15383087 176.11292694 134.13246155 177.13902283 C134.06263217 180.41444656 133.9849965 183.68962298 133.90625 186.96484375 C133.85380244 189.23575569 133.80147561 191.50667043 133.74926758 193.77758789 C133.64439371 198.2946768 133.53575888 202.81165804 133.42529297 207.32861328 C133.32093312 211.65702268 133.23201847 215.9852181 133.16168213 220.31430054 C132.80095794 242.22006639 131.05615961 263.98440233 129.21875 285.80859375 C129.0999926 287.22217918 129.0999926 287.22217918 128.97883606 288.6643219 C128.61932188 292.85448996 128.2255309 297.03338177 127.73583984 301.21044922 C127.31841794 304.87689443 127.12996133 308.49919851 127.0703125 312.19140625 C127.04404785 313.45106201 127.0177832 314.71071777 126.99072266 316.00854492 C126.97744934 316.67163666 126.96417603 317.33472839 126.95050049 318.01791382 C126.36971824 345.21174103 124.66563291 372.60252269 120.28125 399.46484375 C120.09272461 400.65948242 119.90419922 401.85412109 119.70996094 403.08496094 C119.18560714 406.39109781 118.65168328 409.69514697 118.10565186 412.9977417 C117.78963907 414.91397428 117.47993794 416.83124438 117.17041016 418.74853516 C116.9697998 419.92335449 116.76918945 421.09817383 116.5625 422.30859375 C116.30049805 423.87383789 116.30049805 423.87383789 116.03320312 425.47070312 C114.69297861 430.80723347 112.48459554 434.89836874 108.28125 438.46484375 C101.13971138 442.69233565 91.24170654 441.613336 83.1734314 441.60528564 C82.21891512 441.60825677 81.26439883 441.61122789 80.28095782 441.61428905 C77.11616974 441.62288785 73.95141988 441.62447669 70.78662109 441.62597656 C68.50406312 441.63061071 66.22150591 441.63563616 63.93894958 441.64102173 C57.76357407 441.65408345 51.5882094 441.66057754 45.41282225 441.66503239 C41.55175984 441.66797098 37.69070036 441.67207707 33.82963943 441.67653656 C23.12170433 441.68862945 12.41377304 441.69901882 1.70583153 441.70241165 C1.02252849 441.70263122 0.33922546 441.70285078 -0.36478373 441.703077 C-1.04961837 441.70329528 -1.73445302 441.70351356 -2.44004023 441.70373845 C-3.82753984 441.7041819 -5.21503945 441.70462847 -6.60253906 441.70507812 C-7.29077099 441.70529955 -7.97900292 441.70552098 -8.68809037 441.70574912 C-19.85226549 441.70970149 -31.01637553 441.72717623 -42.1805255 441.75043765 C-53.66523862 441.77417264 -65.14990977 441.78635648 -76.63464868 441.78777957 C-83.07405324 441.78882707 -89.51336563 441.79472431 -95.95274734 441.81259918 C-102.00537117 441.82907641 -108.05783346 441.83123697 -114.11047173 441.82246017 C-116.32880905 441.82168984 -118.54715507 441.82603208 -120.7654705 441.83591843 C-123.79880508 441.84864269 -126.83156774 441.84275845 -129.86489868 441.83233643 C-130.73777074 441.84039283 -131.61064281 441.84844923 -132.50996554 441.85674977 C-139.33331109 441.80209908 -146.10137496 440.96625914 -151.1875 436.10546875 C-156.36299572 427.18037919 -156.67663753 414.74872224 -158.23388672 404.70483398 C-159.28104367 397.9978993 -160.52507002 391.4087721 -162.01782227 384.78735352 C-164.46175095 373.20273997 -165.29357311 361.45951017 -166.09643555 349.67285156 C-166.27910352 346.99629526 -166.46995507 344.32042143 -166.66210938 341.64453125 C-167.22493452 333.66095748 -167.7267411 325.6863915 -168.01806641 317.68795776 C-168.37719782 308.07643805 -169.13681081 298.55540716 -170.12890625 288.98828125 C-173.05564326 260.60786854 -175.30682731 232.51598804 -175.15625 203.96484375 C-175.14997589 202.68744324 -175.14370178 201.41004272 -175.13723755 200.09393311 C-175.00368437 180.50560448 -175.00368437 180.50560448 -174.38696289 171.85351562 C-174.33173965 171.05490112 -174.27651642 170.25628662 -174.21961975 169.43347168 C-173.71875 167.46484375 -173.71875 167.46484375 -170.71875 165.46484375 C-161.49124886 164.57607594 -146.2050497 164.2216939 -137.71875 168.46484375 C-132.53097073 168.79422656 -128.39018083 168.50807682 -123.40625 167.02734375 C-109.9834611 163.12921875 -95.56420742 164.35567894 -81.71875 164.46484375 C-81.67387451 163.83843994 -81.62899902 163.21203613 -81.58276367 162.56665039 C-80.41013056 146.46667519 -78.85937796 130.46505212 -76.71875 114.46484375 C-76.57131348 113.31322754 -76.42387695 112.16161133 -76.27197266 110.97509766 C-73.97031859 93.31318226 -70.43911062 76.13555907 -66.21875 58.83984375 C-65.98559082 57.87776001 -65.75243164 56.91567627 -65.51220703 55.92443848 C-58.55558645 27.39863271 -58.55558645 27.39863271 -51.46875 15.21484375 C-51.08452881 14.54864014 -50.70030762 13.88243652 -50.30444336 13.19604492 C-43.86368654 2.36439952 -36.65755887 -5.09729928 -24.28125 -8.47265625 C-14.75076442 -8.63985775 -7.13803171 -6.37556015 0 0 Z M-30.71875 4.46484375 C-30.71875 5.12484375 -30.71875 5.78484375 -30.71875 6.46484375 C-31.37875 6.46484375 -32.03875 6.46484375 -32.71875 6.46484375 C-44.77562767 19.64541027 -46.71741495 38.42942276 -48.65625 55.40234375 C-48.74112671 56.14362518 -48.82600342 56.88490662 -48.91345215 57.64865112 C-50.72904299 73.90013954 -51.6330843 90.20058479 -52.46875 106.52734375 C-52.56601883 108.37681107 -52.56601883 108.37681107 -52.66525269 110.26364136 C-53.56612377 127.67512766 -53.89000949 145.03102332 -53.71875 162.46484375 C-46.03389508 162.48809572 -38.34904385 162.50582404 -30.66416168 162.51665592 C-27.09510549 162.52185676 -23.52607351 162.52890311 -19.95703125 162.5402832 C-16.50758122 162.55121214 -13.05815437 162.55714163 -9.60868835 162.55972099 C-7.66347489 162.5624461 -5.71827063 162.57024203 -3.77307129 162.57814026 C2.34331168 162.57852503 8.23611108 162.41847101 14.28125 161.46484375 C15.4049673 158.09369184 15.17577203 156.36803091 14.70800781 152.8737793 C14.55744934 151.72374924 14.40689087 150.57371918 14.25177002 149.38883972 C14.08102966 148.13903824 13.91028931 146.88923676 13.734375 145.6015625 C13.56250671 144.30402542 13.39063843 143.00648834 13.21356201 141.66963196 C12.75388051 138.20022669 12.28591867 134.73198607 11.81628418 131.26391602 C11.35164393 127.82179738 10.89494872 124.3786272 10.4375 120.93554688 C9.1250218 111.07585985 7.80783548 101.21677631 6.43359375 91.36547852 C4.52530644 77.66457433 2.94259446 63.9419179 1.47900391 50.18676758 C-0.36250151 26.16733936 -0.36250151 26.16733936 -9.71875 4.46484375 C-17.26794144 -0.97201432 -23.23193556 -0.1745918 -30.71875 4.46484375 Z " fill="#FCF8F1" transform="translate(270.71875,33.53515625)"/>
<path d="M0 0 C20.57274945 -1.61931305 20.57274945 -1.61931305 25.7578125 1.83984375 C27.39296388 4.54940088 28.23331043 6.93324171 29 10 C29.48339844 11.31484375 29.48339844 11.31484375 29.9765625 12.65625 C33.77707381 23.8925443 32.37155967 34.8618118 29 46 C30.485 46.495 30.485 46.495 32 47 C32.0825 45.824375 32.165 44.64875 32.25 43.4375 C33.18447322 36.27741469 36.69411373 31.59959357 42.2265625 27.22265625 C47.92484646 23.29410365 54.32320541 23.41115041 61 24 C66.87263457 25.10804426 70.1629144 27.6738119 73.87109375 32.28125 C76.44798552 36.20454543 76.5816595 40.46790304 76 45 C74.2430378 50.2804353 71.77283271 54.00310505 67 57 C58.52252851 61.23873575 50.52783276 61.16001069 41.25 61.125 C39.68958984 61.13080078 39.68958984 61.13080078 38.09765625 61.13671875 C37.10121094 61.13542969 36.10476563 61.13414062 35.078125 61.1328125 C34.17481445 61.13168457 33.27150391 61.13055664 32.34082031 61.12939453 C30 61 30 61 27 60 C26.505 56.04 26.505 56.04 26 52 C19.56787466 60.18783302 18.21888339 65.62230786 19 76 C13.72 76 8.44 76 3 76 C1.25 68.875 1.25 68.875 0.72753906 66.66748047 C-0.64523523 61.31714344 -2.94387682 57.20298913 -6.75 53.125 C-10.29000609 51.35499695 -13.05864458 51.68719401 -17 52 C-17.99 52.66 -18.98 53.32 -20 54 C-20.5 57.5 -20.5 57.5 -20 61 C-15.16407087 64.22395275 -10.04283751 63.28671404 -4.4375 62.5 C-3.2309375 62.2525 -3.2309375 62.2525 -2 62 C-0.40861915 66.17737474 0.21278058 69.53160785 0 74 C-7.56604977 76.81527433 -16.90766809 77.81144391 -24.4375 74.4375 C-28.97262325 71.75678096 -32.64583648 67.70832704 -35 63 C-35.5238576 57.74424835 -35.66505372 53.35473905 -33.3125 48.5625 C-27.91799569 42.58480604 -22.52571991 39.73031012 -14.546875 38.67578125 C-4.37375757 38.21191269 3.3921933 42.62474299 11 49 C14.40631715 37.56450669 16.1098135 26.20228344 11 15 C7.76503775 9.66309367 3.9084509 4.85335112 0 0 Z " fill="#6D2217" transform="translate(227,286)"/>
<path d="M0 0 C5.61 0 11.22 0 17 0 C16.34 3.3 15.68 6.6 15 10 C15.886875 9.21625 16.77375 8.4325 17.6875 7.625 C22.66031524 3.23041909 27.79873265 2.45167206 34.265625 2.5390625 C38.63935216 3.27634794 41.23466956 5.64334104 44 9 C47.30073634 15.60147268 45.91275471 27.50222939 43.87109375 34.4296875 C41.12331098 42.37230678 37.22744768 49.75294683 33 57 C27.06 57 21.12 57 15 57 C15.845625 55.515 16.69125 54.03 17.5625 52.5 C26.65075874 36.68074888 26.65075874 36.68074888 28 19 C27.67 18.67 27.34 18.34 27 18 C23.08513239 18.22159628 20.70495359 18.42490628 17.625 20.9375 C15.15811373 24.06854796 14.8630985 25.82250462 14.875 29.75 C14.87242187 30.59046875 14.86984375 31.4309375 14.8671875 32.296875 C14.97559615 35.56764521 14.97559615 35.56764521 16 41 C11.71 41 7.42 41 3 41 C-0.00569854 31.59507232 -2.13662589 23.35795111 -2.1875 13.4375 C-2.20876953 11.54837891 -2.20876953 11.54837891 -2.23046875 9.62109375 C-2 6 -2 6 0 0 Z " fill="#6E2318" transform="translate(308,319)"/>
<path d="M0 0 C4.66335281 3.09133746 7.03774952 6.55074856 8.8125 11.875 C9.35094432 18.22864303 8.48506452 22.59285473 4.8125 27.875 C0.21869301 32.85592556 -5.5387289 35.83679239 -12.1875 36.875 C-14.52467086 36.96648453 -16.86416532 37.00565763 -19.203125 37.0078125 C-20.1877774 37.00924759 -20.1877774 37.00924759 -21.19232178 37.01071167 C-22.57059831 37.0113888 -23.94887812 37.00956723 -25.32714844 37.00537109 C-27.44473313 36.99998159 -29.56210904 37.00534936 -31.6796875 37.01171875 C-33.0208338 37.01105856 -34.36197998 37.00977862 -35.703125 37.0078125 C-36.92290039 37.00668457 -38.14267578 37.00555664 -39.39941406 37.00439453 C-42.1875 36.875 -42.1875 36.875 -43.1875 35.875 C-43.26063567 33.34450598 -43.27997527 30.84195163 -43.25 28.3125 C-43.24548828 27.60158203 -43.24097656 26.89066406 -43.23632812 26.15820312 C-43.22450864 24.39709987 -43.20657263 22.63603964 -43.1875 20.875 C-41.2075 21.205 -39.2275 21.535 -37.1875 21.875 C-37.290625 20.905625 -37.39375 19.93625 -37.5 18.9375 C-37.47626462 13.07486089 -34.38832957 8.23124122 -30.47265625 4.0390625 C-22.32648464 -3.26931903 -9.92051136 -5.13357576 0 0 Z " fill="#6E2419" transform="translate(185.1875,307.125)"/>
<path d="M0 0 C4.46557008 4.12431473 6.78854343 7.50481243 7.3125 13.6875 C7.22506016 19.6224793 4.83811369 24.16188631 0.6875 28.3125 C-8.54938228 34.11240283 -17.2659211 34.16462397 -27.8125 34.125 C-28.86115234 34.12886719 -29.90980469 34.13273437 -30.99023438 34.13671875 C-32.48973633 34.13478516 -32.48973633 34.13478516 -34.01953125 34.1328125 C-34.92807861 34.13168457 -35.83662598 34.13055664 -36.77270508 34.12939453 C-39 34 -39 34 -41 33 C-41.4140625 30.05859375 -41.4140625 30.05859375 -41.625 26.4375 C-41.69976562 25.23996094 -41.77453125 24.04242188 -41.8515625 22.80859375 C-41.90054688 21.88175781 -41.94953125 20.95492188 -42 20 C-41.34 19.67 -40.68 19.34 -40 19 C-39.01 19.33 -38.02 19.66 -37 20 C-36.9175 18.824375 -36.835 17.64875 -36.75 16.4375 C-35.81552678 9.27741469 -32.30588627 4.59959357 -26.7734375 0.22265625 C-19.41581217 -4.84989161 -7.58234332 -4.75138108 0 0 Z " fill="#6D2217" transform="translate(296,313)"/>
<path d="M0 0 C1.51082576 0 3.02173402 -0.04257225 4.53125 -0.10546875 C5.5109375 -0.13253906 6.490625 -0.15960938 7.5 -0.1875 C8.4796875 -0.22230469 9.459375 -0.25710938 10.46875 -0.29296875 C11.3040625 -0.19628906 12.139375 -0.09960938 13 0 C15.58702923 3.88054384 14.71943837 5.52349458 14 10 C14.33 10.99 14.66 11.98 15 13 C15.33 8.71 15.66 4.42 16 0 C19.63 0 23.26 0 27 0 C27 0.66 27 1.32 27 2 C24.36 2 21.72 2 19 2 C19 3.32 19 4.64 19 6 C20.98 6 22.96 6 25 6 C25.495 7.485 25.495 7.485 26 9 C24.02 9 22.04 9 20 9 C20 10.32 20 11.64 20 13 C22.31 13 24.62 13 27 13 C28.65 9.04 30.3 5.08 32 1 C33.32 1 34.64 1 36 1 C36.83986084 2.93467942 37.67168027 4.87285129 38.5 6.8125 C38.9640625 7.89144531 39.428125 8.97039062 39.90625 10.08203125 C41 13 41 13 41 16 C40.01 15.67 39.02 15.34 38 15 C37.505 14.01 37.505 14.01 37 13 C34.67843403 12.59270772 32.3431213 12.25561323 30 12 C29.67 13.32 29.34 14.64 29 16 C26.37472811 16.05382106 23.75055287 16.09358313 21.125 16.125 C20.37863281 16.14175781 19.63226563 16.15851563 18.86328125 16.17578125 C16.90805539 16.1933959 14.95257979 16.10320189 13 16 C12.34 15.34 11.68 14.68 11 14 C11 12.68 11 11.36 11 10 C9.02 10 7.04 10 5 10 C5 11.65 5 13.3 5 15 C0.91159867 15.9911276 -2.8031194 16.44966578 -7 16 C-10.38121991 13.55401113 -11.76936783 12.10703441 -12.625 8 C-11.13673232 0.85631516 -6.73432829 -0.63531399 0 0 Z " fill="#84443A" transform="translate(217,393)"/>
<path d="M0 0 C2.39945808 0.03320005 4.78988107 0.10051662 7.1875 0.1875 C7.86103516 0.19330078 8.53457031 0.19910156 9.22851562 0.20507812 C13.12331918 0.3760695 14.82012384 0.84539156 17.80859375 3.4140625 C18.53175781 4.26742188 19.25492188 5.12078125 20 6 C24.54066148 9.45485113 27.2046813 10.34419466 33 12 C33 17.94 33 23.88 33 30 C23.01923405 28.57417629 14.68337293 24.84608537 7.7578125 17.35546875 C4.08569069 12.43482552 0 6.27104341 0 0 Z " fill="#6D2217" transform="translate(149,346)"/>
<path d="M0 0 C12.92845986 -0.78725398 12.92845986 -0.78725398 17.0625 2.25 C17.701875 3.1575 18.34125 4.065 19 5 C23.50717354 9.26354254 25.22064419 9.30516105 32 11 C32 16.61 32 22.22 32 28 C20.59893929 26.57486741 13.69076873 22.70338661 6 14 C0 4.29761905 0 4.29761905 0 0 Z " fill="#6F261B" transform="translate(260,349)"/>
<path d="M0 0 C7 0 14 0 21 0 C21.33 0.99 21.66 1.98 22 3 C19.69 3 17.38 3 15 3 C15 3.66 15 4.32 15 5 C16.134375 5.391875 17.26875 5.78375 18.4375 6.1875 C22 8 22 8 23.125 10.5 C23 13 23 13 21.78393555 14.63793945 C19.48467312 16.39345951 18.20159707 16.34780122 15.33203125 16.29296875 C14.43935547 16.28330078 13.54667969 16.27363281 12.62695312 16.26367188 C11.23379883 16.2259668 11.23379883 16.2259668 9.8125 16.1875 C8.87212891 16.17396484 7.93175781 16.16042969 6.96289062 16.14648438 C4.64168265 16.11113603 2.32076912 16.05732915 0 16 C0 10.72 0 5.44 0 0 Z " fill="#F7F0E9" transform="translate(272,393)"/>
<path d="M0 0 C5.68028751 2.92620872 8.32968023 7.65961285 10.421875 13.51953125 C11.24685029 17.05912119 10.91173946 19.50499875 10 23 C9.67 23 9.34 23 9 23 C8.34 19.04 7.68 15.08 7 11 C6.195625 11.33 5.39125 11.66 4.5625 12 C-0.58339553 13.4444619 -5.5376527 14.02097327 -10.5625 11.9375 C-12.81151056 8.90622489 -12.52134619 6.64942331 -12 3 C-9.03285468 -0.83256271 -4.49264235 -0.99929802 0 0 Z " fill="#F7F1EA" transform="translate(218,337)"/>
<path d="M0 0 C2.35119399 3.52679099 2.21443452 5.02879485 2.125 9.1875 C2.10695312 10.27417969 2.08890625 11.36085938 2.0703125 12.48046875 C2.03550781 13.72763672 2.03550781 13.72763672 2 15 C-1.13871188 16.56935594 -3.53855822 16.35201103 -7 16 C-10.38121991 13.55401113 -11.76936783 12.10703441 -12.625 8 C-11.17888316 1.05863919 -6.69016218 -1.0098358 0 0 Z " fill="#F8F1EA" transform="translate(217,393)"/>
<path d="M0 0 C3.9375 0.625 3.9375 0.625 6.4375 2.3125 C8.23018598 5.07622422 8.51756212 6.39322531 7.9375 9.625 C6.05889167 12.1298111 4.97648126 12.61200625 1.9375 13.625 C-0.12395107 13.693991 -2.18751401 13.70967727 -4.25 13.6875 C-5.88001953 13.67396484 -5.88001953 13.67396484 -7.54296875 13.66015625 C-8.37441406 13.64855469 -9.20585937 13.63695312 -10.0625 13.625 C-9.82217711 9.61961855 -9.33172244 6.46599565 -7 3.1875 C-3.56728763 0.19300623 -3.56728763 0.19300623 0 0 Z " fill="#F8F2EB" transform="translate(171.0625,317.375)"/>
<path d="M0 0 C8.3984375 -0.29296875 8.3984375 -0.29296875 11 0 C13.58702923 3.88054384 12.71943837 5.52349458 12 10 C12.33 10.99 12.66 11.98 13 13 C13.33 8.71 13.66 4.42 14 0 C14.33 0 14.66 0 15 0 C15 4.95 15 9.9 15 15 C13.68 15.33 12.36 15.66 11 16 C10.34 15.34 9.68 14.68 9 14 C9 12.68 9 11.36 9 10 C7.02 10 5.04 10 3 10 C3 11.65 3 13.3 3 15 C2.01 15 1.02 15 0 15 C0 10.05 0 5.1 0 0 Z " fill="#752D23" transform="translate(219,393)"/>
<path d="M0 0 C3.50580079 0.82050657 5.33731938 2.24027118 7.9375 4.6875 C7.4422783 8.35214055 6.9166794 10.39582354 3.9375 12.6875 C0.92259443 13.69246852 -1.10431692 13.79085303 -4.25 13.75 C-5.60158203 13.73646484 -5.60158203 13.73646484 -6.98046875 13.72265625 C-7.66753906 13.71105469 -8.35460937 13.69945312 -9.0625 13.6875 C-9.51202902 10.61571835 -9.50644368 8.45977703 -7.9375 5.73046875 C-5.46824127 2.57316136 -3.98297999 0.89413837 0 0 Z " fill="#F8F2EB" transform="translate(281.0625,321.3125)"/>
<path d="M0 0 C3.3 0 6.6 0 10 0 C9.67 0.99 9.34 1.98 9 3 C7.02 3 5.04 3 3 3 C3 3.99 3 4.98 3 6 C4.98 6 6.96 6 9 6 C9 6.99 9 7.98 9 9 C7.02 9 5.04 9 3 9 C3 10.32 3 11.64 3 13 C5.31 13 7.62 13 10 13 C10 13.99 10 14.98 10 16 C6.7 16 3.4 16 0 16 C0 10.72 0 5.44 0 0 Z " fill="#793429" transform="translate(272,393)"/>
<path d="M0 0 C2.05078125 0.03255208 4.1015625 0.06510417 6.15234375 0.09765625 C6.48234375 1.08765625 6.81234375 2.07765625 7.15234375 3.09765625 C4.84234375 3.09765625 2.53234375 3.09765625 0.15234375 3.09765625 C0.15234375 3.75765625 0.15234375 4.41765625 0.15234375 5.09765625 C1.28671875 5.48953125 2.42109375 5.88140625 3.58984375 6.28515625 C7.15234375 8.09765625 7.15234375 8.09765625 8.27734375 10.59765625 C8.15234375 13.09765625 8.15234375 13.09765625 7.15234375 14.91015625 C4.1774182 16.67651829 1.53433889 16.28908994 -1.84765625 16.09765625 C-2.50765625 14.77765625 -3.16765625 13.45765625 -3.84765625 12.09765625 C-0.87765625 12.42765625 2.09234375 12.75765625 5.15234375 13.09765625 C4.82234375 12.10765625 4.49234375 11.11765625 4.15234375 10.09765625 C2.1698566 9.38058643 0.16819026 8.71475212 -1.84765625 8.09765625 C-2.50765625 7.43765625 -3.16765625 6.77765625 -3.84765625 6.09765625 C-3.12417691 0.16512563 -3.12417691 0.16512563 0 0 Z " fill="#7E3C31" transform="translate(286.84765625,392.90234375)"/>
<path d="M0 0 C3.3 0 6.6 0 10 0 C10 0.66 10 1.32 10 2 C7.36 2 4.72 2 2 2 C2 3.32 2 4.64 2 6 C3.98 6 5.96 6 8 6 C8.33 6.99 8.66 7.98 9 9 C7.02 9 5.04 9 3 9 C3 10.32 3 11.64 3 13 C4.98 13 6.96 13 9 13 C9 13.99 9 14.98 9 16 C6.03 16 3.06 16 0 16 C0 10.72 0 5.44 0 0 Z " fill="#742D22" transform="translate(234,393)"/>
<path d="M0 0 C0.33 0.99 0.66 1.98 1 3 C-1.05078125 3.22786458 -3.1015625 3.45572917 -5.15234375 3.68359375 C-7.01140229 3.81886614 -7.01140229 3.81886614 -8 5 C-7.71269945 7.33944736 -7.38063221 9.6739143 -7 12 C-4.36 12.33 -1.72 12.66 1 13 C0.67 13.99 0.34 14.98 0 16 C-4.3322929 16.4247346 -6.34962488 16.47048413 -9.9375 13.875 C-12 11 -12 11 -12.625 8 C-11.14133122 0.87838988 -6.73851973 -0.66063919 0 0 Z " fill="#79342A" transform="translate(217,393)"/>
<path d="M0 0 C1.875 0.8125 1.875 0.8125 2.875 2.8125 C3.0625 5.8125 3.0625 5.8125 2.875 8.8125 C2.215 9.4725 1.555 10.1325 0.875 10.8125 C-1.75 10.4375 -1.75 10.4375 -4.125 9.8125 C-5.46054084 3.37762141 -5.46054084 3.37762141 -3.9375 0.8125 C-2.125 -0.1875 -2.125 -0.1875 0 0 Z " fill="#7E3B30" transform="translate(346.125,252.1875)"/>
<path d="M0 0 C4.29 0 8.58 0 13 0 C12.67 0.99 12.34 1.98 12 3 C10.68 3 9.36 3 8 3 C8 6.96 8 10.92 8 15 C7.01 15.33 6.02 15.66 5 16 C5 11.38 5 6.76 5 2 C3.35 2 1.7 2 0 2 C0 1.34 0 0.68 0 0 Z " fill="#763025" transform="translate(258,393)"/>
<path d="M0 0 C0.66 0 1.32 0 2 0 C2 3.63 2 7.26 2 11 C0.00045254 11.04254356 -2.00041636 11.04080783 -4 11 C-5 10 -5 10 -5.0625 6.9375 C-5.041875 5.968125 -5.02125 4.99875 -5 4 C-3.35 3.67 -1.7 3.34 0 3 C0 2.01 0 1.02 0 0 Z " fill="#9E6B61" transform="translate(362,234)"/>
<path d="M0 0 C0.66 0 1.32 0 2 0 C2 0.66 2 1.32 2 2 C2.66 2 3.32 2 4 2 C4 2.66 4 3.32 4 4 C3.34 4 2.68 4 2 4 C2 5.32 2 6.64 2 8 C2.66 8 3.32 8 4 8 C4 8.66 4 9.32 4 10 C2.68 9.67 1.36 9.34 0 9 C0 7.35 0 5.7 0 4 C-1.65 3.67 -3.3 3.34 -5 3 C-4.67 3.66 -4.34 4.32 -4 5 C-3.01 5.33 -2.02 5.66 -1 6 C-1.33 7.32 -1.66 8.64 -2 10 C-3.65 10 -5.3 10 -7 10 C-7 9.34 -7 8.68 -7 8 C-5.68 8.33 -4.36 8.66 -3 9 C-3 8.34 -3 7.68 -3 7 C-4.32 6.34 -5.64 5.68 -7 5 C-6.67 4.01 -6.34 3.02 -6 2 C-4.35 2 -2.7 2 -1 2 C-0.67 1.34 -0.34 0.68 0 0 Z " fill="#824137" transform="translate(352,235)"/>
<path d="M0 0 C2.625 0.375 2.625 0.375 5 1 C5 1.99 5 2.98 5 4 C3.35 4 1.7 4 0 4 C0 4.66 0 5.32 0 6 C1.65 6 3.3 6 5 6 C4.67 6.66 4.34 7.32 4 8 C2.35 7.67 0.7 7.34 -1 7 C-1.625 4.625 -1.625 4.625 -2 2 C-1.34 1.34 -0.68 0.68 0 0 Z " fill="#86473D" transform="translate(339,237)"/>
<path d="M0 0 C0.125 2.375 0.125 2.375 0 5 C-0.66 5.66 -1.32 6.32 -2 7 C-1.34 7.33 -0.68 7.66 0 8 C0 8.66 0 9.32 0 10 C-1.98 10 -3.96 10 -6 10 C-5.71125 9.443125 -5.4225 8.88625 -5.125 8.3125 C-3.9586747 5.91505355 -2.9660119 3.48403061 -2 1 C-3.32 1.33 -4.64 1.66 -6 2 C-6 1.34 -6 0.68 -6 0 C-3.50907189 -1.24546405 -2.58919267 -0.7767578 0 0 Z " fill="#7B372D" transform="translate(356,253)"/>
<path d="M0 0 C0.125 2.375 0.125 2.375 0 5 C-0.66 5.66 -1.32 6.32 -2 7 C-1.34 7.33 -0.68 7.66 0 8 C0 8.66 0 9.32 0 10 C-1.98 10 -3.96 10 -6 10 C-5.71125 9.443125 -5.4225 8.88625 -5.125 8.3125 C-3.9586747 5.91505355 -2.9660119 3.48403061 -2 1 C-3.32 1.33 -4.64 1.66 -6 2 C-6 1.34 -6 0.68 -6 0 C-3.50907189 -1.24546405 -2.58919267 -0.7767578 0 0 Z " fill="#7B372D" transform="translate(340,253)"/>
<path d="M0 0 C1.98 0 3.96 0 6 0 C6 0.33 6 0.66 6 1 C4.35 1 2.7 1 1 1 C1 1.66 1 2.32 1 3 C2.65 3.33 4.3 3.66 6 4 C6.042721 5.66611905 6.04063832 7.33382885 6 9 C5 10 5 10 2.4375 10.0625 C1.633125 10.041875 0.82875 10.02125 0 10 C0 9.34 0 8.68 0 8 C1.32 8 2.64 8 4 8 C4 7.01 4 6.02 4 5 C2.68 5 1.36 5 0 5 C0 3.35 0 1.7 0 0 Z " fill="#7D392F" transform="translate(358,253)"/>
<path d="M0 0 C0.33 0 0.66 0 1 0 C1 4.95 1 9.9 1 15 C-0.32 15.33 -1.64 15.66 -3 16 C-3.66 15.34 -4.32 14.68 -5 14 C-4.625 10.875 -4.625 10.875 -4 8 C-2 10 -2 10 -1 13 C-0.67 8.71 -0.34 4.42 0 0 Z " fill="#986258" transform="translate(233,393)"/>
<path d="M0 0 C0.66 0 1.32 0 2 0 C2 1.32 2 2.64 2 4 C3.32 4 4.64 4 6 4 C6 4.99 6 5.98 6 7 C4.02 7.66 2.04 8.32 0 9 C0 8.34 0 7.68 0 7 C-0.99 6.67 -1.98 6.34 -3 6 C-2.34 5.34 -1.68 4.68 -1 4 C-0.3574765 1.93125966 -0.3574765 1.93125966 0 0 Z " fill="#EBDED7" transform="translate(356,254)"/>
<path d="M0 0 C2.31 0 4.62 0 7 0 C6.67 1.65 6.34 3.3 6 5 C4.02 5 2.04 5 0 5 C0 3.35 0 1.7 0 0 Z " fill="#EDE1D9" transform="translate(222,396)"/>
<path d="M0 0 C1.98 0 3.96 0 6 0 C5.5206753 4.31392226 4.2542015 6.16569547 1 9 C-0.4783226 6.04335481 -0.06032783 3.25770263 0 0 Z " fill="#EDE2DA" transform="translate(348,254)"/>
<path d="M0 0 C0.99 0.33 1.98 0.66 3 1 C3 2.98 3 4.96 3 7 C1.68 6.67 0.36 6.34 -1 6 C-1.042721 4.33388095 -1.04063832 2.66617115 -1 1 C-0.67 0.67 -0.34 0.34 0 0 Z " fill="#F0E6DE" transform="translate(344,254)"/>
<path d="M0 0 C2.5 1.375 2.5 1.375 5 3 C5 3.66 5 4.32 5 5 C1.7 4.67 -1.6 4.34 -5 4 C-5 3.34 -5 2.68 -5 2 C-3.35 2 -1.7 2 0 2 C0 1.34 0 0.68 0 0 Z " fill="#D7C1B9" transform="translate(344,239)"/>
<path d="M0 0 C0.66 0.33 1.32 0.66 2 1 C1.67 2.98 1.34 4.96 1 7 C-0.32 6.67 -1.64 6.34 -3 6 C-2.625 3.5625 -2.625 3.5625 -2 1 C-1.34 0.67 -0.68 0.34 0 0 Z " fill="#E2D1CA" transform="translate(258,326)"/>
<path d="M0 0 C1.4540625 0.0309375 1.4540625 0.0309375 2.9375 0.0625 C3.2675 1.0525 3.5975 2.0425 3.9375 3.0625 C2.844375 3.02125 1.75125 2.98 0.625 2.9375 C-3.15142229 2.74175334 -3.15142229 2.74175334 -6.0625 5.0625 C-3.64893617 0.07446809 -3.64893617 0.07446809 0 0 Z " fill="#70261B" transform="translate(290.0625,392.9375)"/>
<path d="M0 0 C0.99 0.33 1.98 0.66 3 1 C4.25 7.5 4.25 7.5 2 12 C1.34 8.04 0.68 4.08 0 0 Z " fill="#E3D2CA" transform="translate(225,348)"/>
<path d="M0 0 C1.65 0 3.3 0 5 0 C5.66 1.32 6.32 2.64 7 4 C6.01 4.33 5.02 4.66 4 5 C3.67 4.34 3.34 3.68 3 3 C2.01 2.67 1.02 2.34 0 2 C0 1.34 0 0.68 0 0 Z " fill="#742D22" transform="translate(288,400)"/>
<path d="M0 0 C0.66 0.33 1.32 0.66 2 1 C2 3.31 2 5.62 2 8 C1.01 8.495 1.01 8.495 0 9 C0 8.34 0 7.68 0 7 C-0.99 6.67 -1.98 6.34 -3 6 C-2.34 5.34 -1.68 4.68 -1 4 C-0.3574765 1.93125966 -0.3574765 1.93125966 0 0 Z " fill="#E8D9D2" transform="translate(340,254)"/>
</svg>
