<?xml version="1.0" encoding="UTF-8"?>
<svg version="1.1" xmlns="http://www.w3.org/2000/svg" width="1920" height="1080">
<path d="M0 0 C633.6 0 1267.2 0 1920 0 C1920 356.4 1920 712.8 1920 1080 C1286.4 1080 652.8 1080 0 1080 C0 723.6 0 367.2 0 0 Z " fill="#222222" transform="translate(0,0)"/>
<path d="M0 0 C0.84016663 -0.00239685 1.68033325 -0.0047937 2.54595947 -0.00726318 C23.11259784 -0.00774184 43.43314216 2.26041752 63.84991455 4.53245544 C72.89606287 5.5319604 81.94250624 6.27753555 91.02294922 6.89208984 C92.36510498 6.98417725 92.36510498 6.98417725 93.734375 7.078125 C94.47397461 7.12485352 95.21357422 7.17158203 95.97558594 7.21972656 C98.25 7.4375 98.25 7.4375 100.93408203 7.94946289 C105.24628426 8.58413321 109.46746225 8.5999135 113.8203125 8.60546875 C114.73779266 8.60879715 115.65527283 8.61212555 116.60055542 8.61555481 C118.53871156 8.62060375 120.47687635 8.62296376 122.41503906 8.62280273 C125.34455148 8.6249774 128.27367968 8.64312223 131.203125 8.66210938 C140.72465457 8.69145091 149.92648299 8.62530496 159.25 6.4375 C159.98605469 6.27016357 160.72210937 6.10282715 161.48046875 5.93041992 C163.3921742 5.47005097 165.29066431 4.95573899 167.1875 4.4375 C169.02634766 3.9425 169.02634766 3.9425 170.90234375 3.4375 C173.77308643 2.57996193 176.49521015 1.60841637 179.25 0.4375 C176.80899545 8.91837535 174.04806199 17.29088728 171.22631836 25.65112305 C170.70044041 27.21703817 170.17992652 28.78476494 169.66479492 30.35424805 C162.34975638 52.62478641 162.34975638 52.62478641 153.75 57.875 C152.68265625 58.55369141 152.68265625 58.55369141 151.59375 59.24609375 C146.35065044 61.91133603 141.45858083 62.77820936 135.62890625 62.87890625 C134.87701523 62.89539719 134.12512421 62.91188812 133.35044861 62.92887878 C130.83760869 62.97141758 128.32567369 62.98975609 125.8125 63 C124.93706543 63.00495483 124.06163086 63.00990967 123.15966797 63.01501465 C92.28087703 63.05511338 61.55465729 57.79548033 31.14834595 52.85273743 C21.82860353 51.34627338 12.48908191 50.06964112 3.125 48.875 C1.48636897 48.66339964 -0.15222093 48.45148051 -1.79077148 48.23925781 C-4.99068822 47.82511107 -8.19082722 47.41274676 -11.39111328 47.00146484 C-15.20904615 46.50940902 -19.02480193 46.00232549 -22.83984375 45.48828125 C-36.91766791 43.59227051 -50.65401749 42.36310142 -64.875 42.3125 C-65.97239502 42.30774658 -67.06979004 42.30299316 -68.20043945 42.2980957 C-77.99547735 42.31799383 -87.46124289 42.56325955 -96.8125 45.6875 C-97.83754639 46.02346191 -97.83754639 46.02346191 -98.88330078 46.36621094 C-113.44374544 51.27360732 -125.19340492 59.68495423 -132.375 73.58203125 C-138.3793626 86.2113997 -139.92845982 97.17756257 -139.9375 111 C-139.95586914 112.4840332 -139.95586914 112.4840332 -139.97460938 113.99804688 C-140.0029822 128.25066378 -135.39461342 141.82032052 -125.75 152.4375 C-125.17765625 153.11296875 -124.6053125 153.7884375 -124.015625 154.484375 C-112.74936081 166.90615346 -95.18186079 173.47350817 -78.75 174.4375 C-56.17216262 175.38646258 -34.89605233 174.22190131 -12.75 169.4375 C-11.74743164 169.22883301 -10.74486328 169.02016602 -9.71191406 168.80517578 C7.62854792 165.12450021 24.3090074 159.24204675 41.06030273 153.53363037 C46.93472641 151.5347268 52.82934485 149.60792869 58.75 147.75 C59.48387939 147.51861328 60.21775879 147.28722656 60.97387695 147.04882812 C62.72915444 146.50061271 64.48923487 145.96782569 66.25 145.4375 C66.92546875 145.23125 67.6009375 145.025 68.296875 144.8125 C75.73252024 143.38485611 83.85906854 143.30467153 90.50390625 147.171875 C100.28980603 154.26501041 106.28739847 164.30503148 112.6875 174.375 C113.20771729 175.19170166 113.72793457 176.00840332 114.26391602 176.84985352 C116.6234976 180.61484558 118.82060115 184.20065909 120.25 188.4375 C119.13818359 188.47617187 119.13818359 188.47617187 118.00390625 188.515625 C102.47681209 189.35184549 88.46773947 193.93303227 73.86489868 198.91436768 C61.72110216 203.05156321 49.46859648 206.49566324 37.04345703 209.69677734 C34.56358431 210.35434891 32.10764335 211.05759374 29.65234375 211.80078125 C10.21765086 217.67358397 -9.52189323 220.91634869 -29.8125 220.875 C-31.12492676 220.87282471 -32.43735352 220.87064941 -33.78955078 220.8684082 C-54.17164794 220.54826371 -71.99868769 215.13790648 -89.75 205.4375 C-90.80960937 204.88191406 -91.86921875 204.32632813 -92.9609375 203.75390625 C-101.11596062 199.29111801 -107.88535904 193.63692676 -114.75 187.4375 C-115.76900391 186.52677734 -115.76900391 186.52677734 -116.80859375 185.59765625 C-127.18162788 175.7995709 -134.464505 163.1075818 -140.75 150.4375 C-133.82179126 191.07667938 -120.81657813 228.17966867 -91.75 258.4375 C-91.29077148 258.92782715 -90.83154297 259.4181543 -90.35839844 259.92333984 C-61.78804581 290.35534937 -18.80599851 311.84292293 23.24584961 313.55981445 C42.79759047 314.02576781 62.52279401 313.70827655 81.25 307.4375 C82.30703125 307.10105469 83.3640625 306.76460937 84.453125 306.41796875 C93.84274222 303.27055221 102.532942 299.10371837 111.25 294.4375 C112.60738281 293.71433594 112.60738281 293.71433594 113.9921875 292.9765625 C139.67918963 278.40655802 156.53139337 255.48450947 169.25 229.4375 C169.8500239 228.23230568 170.4513372 227.02775124 171.0546875 225.82421875 C171.44914062 225.03660156 171.84359375 224.24898437 172.25 223.4375 C174.56 223.4375 176.87 223.4375 179.25 223.4375 C175.71943768 234.24316044 171.66641492 244.43705916 166.30322266 254.46679688 C165.60749122 255.76859199 164.91949282 257.074553 164.23974609 258.38476562 C155.34081038 275.51962975 143.7197478 290.65721046 130.25 304.4375 C129.18652344 305.59378906 129.18652344 305.59378906 128.1015625 306.7734375 C99.58773809 337.03523582 54.45526187 355.24543019 13.30558777 356.78521729 C-3.10125872 357.23668565 -19.72539408 357.33165913 -35.75 353.4375 C-37.01626221 353.14746094 -37.01626221 353.14746094 -38.30810547 352.8515625 C-74.90979837 344.33373273 -110.9706913 324.0295286 -134.75 294.4375 C-135.49507813 293.53 -136.24015625 292.6225 -137.0078125 291.6875 C-167.69521501 253.20799841 -181.10717438 205.78849411 -176.2890625 156.84375 C-175.68571177 151.98821318 -174.78103536 147.21861794 -173.75 142.4375 C-173.56727539 141.55642578 -173.38455078 140.67535156 -173.19628906 139.76757812 C-167.46803446 112.96047532 -155.53921334 87.40732113 -137.75 66.4375 C-136.88366916 65.37666568 -136.01782824 64.31543117 -135.15234375 63.25390625 C-101.97219033 23.03604705 -52.02020601 0.00904722 0 0 Z " fill="#F4F2EE" transform="translate(590.75,241.5625)"/>
<path d="M0 0 C15.85131379 13.34569846 28.42328931 29.08081104 31.8125 50.1875 C32.09544426 53.63066221 32.14684459 57.04633867 32.125 60.5 C32.11762817 61.88312378 32.11762817 61.88312378 32.11010742 63.29418945 C31.85676564 78.06726333 27.51362563 90.11134135 17.2421875 100.87109375 C8.92626846 108.79929309 -0.38313457 112.7793752 -11.1875 116.1875 C-12.39277344 116.5690625 -13.59804687 116.950625 -14.83984375 117.34375 C-20.67605396 118.74094214 -26.66219843 118.43687506 -32.625 118.375 C-33.80126953 118.37435547 -34.97753906 118.37371094 -36.18945312 118.37304688 C-45.87488755 118.32432194 -54.56198982 117.77628938 -63.75 114.625 C-64.52593506 114.35961426 -65.30187012 114.09422852 -66.10131836 113.82080078 C-98.54692941 102.348429 -127.53851811 77.37698532 -143.078125 46.51953125 C-147.1875 37.86872079 -147.1875 37.86872079 -147.1875 34.1875 C-147.8475 34.1875 -148.5075 34.1875 -149.1875 34.1875 C-150.12628527 75.30629486 -139.88071736 111.23412191 -111.01391602 141.69580078 C-99.15927715 153.86587512 -83.38124429 164.37871658 -66.6940918 168.54443359 C-65.02965585 168.97144482 -63.37468799 169.43731624 -61.73217773 169.94213867 C-54.92214077 171.99820313 -48.66219053 172.73333065 -41.5625 172.6875 C-39.99653076 172.67891968 -39.99653076 172.67891968 -38.39892578 172.67016602 C-29.02154645 172.45635658 -20.83719507 170.75739217 -12.1875 167.1875 C-11.56166016 166.93049316 -10.93582031 166.67348633 -10.29101562 166.40869141 C8.31874674 158.48933329 23.12350684 143.67247262 30.74072266 124.89990234 C32.57882727 120.04297653 34.23169913 115.13349062 35.8125 110.1875 C38.1225 110.1875 40.4325 110.1875 42.8125 110.1875 C37.44092587 137.1988442 20.86963349 161.96311142 -1.5 177.9375 C-28.54146564 195.77129813 -59.1313384 203.86681991 -91.5 198 C-109.39751915 193.59696568 -126.03324443 186.04699207 -140.1875 174.1875 C-141.19554687 173.34316406 -142.20359375 172.49882813 -143.2421875 171.62890625 C-157.968769 158.89669528 -167.46079316 143.33440686 -174.1875 125.1875 C-174.58195313 124.15238281 -174.97640625 123.11726562 -175.3828125 122.05078125 C-184.85523916 95.77356804 -181.73858901 65.71831679 -170.58984375 40.5859375 C-164.85316885 28.58988384 -157.27483887 18.82107235 -148.1875 9.1875 C-147.61386719 8.56101562 -147.04023437 7.93453125 -146.44921875 7.2890625 C-107.85183691 -33.42703004 -42.80477636 -32.71314395 0 0 Z " fill="#F3F1ED" transform="translate(1189.1875,398.8125)"/>
<path d="M0 0 C17.82 0 35.64 0 54 0 C52 21 52 21 51 31 C50.92259532 32.90382982 50.87451505 34.8094201 50.87415886 36.71482277 C50.87155111 37.73505079 50.86894336 38.75527881 50.86625659 39.80642283 C50.86848732 40.89475551 50.87071804 41.98308818 50.87301636 43.10440063 C50.87145637 44.28588601 50.86989638 45.46737139 50.86828911 46.68465936 C50.86500855 49.93764534 50.86616499 53.1905935 50.86927533 56.44357848 C50.87154874 59.96248934 50.86804009 63.4813953 50.86529541 67.00030518 C50.86085862 73.88512209 50.86180512 80.76992808 50.86470805 87.65474541 C50.8669714 93.25601054 50.86727057 98.85727261 50.86618423 104.45853806 C50.86595439 105.6568585 50.86595439 105.6568585 50.86571989 106.87938743 C50.86540014 108.50265039 50.86507593 110.12591335 50.8647473 111.74917631 C50.86189834 126.95782554 50.8651698 142.16646874 50.87054767 157.37511699 C50.87501002 170.39705368 50.87424333 183.41898144 50.86962891 196.44091797 C50.86426393 211.58785695 50.86217839 226.73479064 50.86524117 241.88173044 C50.86555969 243.50067607 50.86587406 245.11962171 50.86618423 246.73856735 C50.86633851 247.53495806 50.86649279 248.33134877 50.86665174 249.15187252 C50.86751151 254.73696768 50.86606557 260.32205945 50.86370468 265.90715408 C50.86088486 272.72755678 50.86169043 279.54794799 50.86698543 286.36834939 C50.86959397 289.8417145 50.87067649 293.31506052 50.86733627 296.78842545 C50.85477875 314.00682784 50.85493347 330.97480574 53.59765625 348.01171875 C54 351 54 351 54 356 C37.83 356 21.66 356 5 356 C5.00112793 351.8229541 5.00225586 347.6459082 5.00341797 343.34228516 C5.00278835 329.48816848 4.96950445 315.63428806 4.9197216 301.78026772 C4.89034678 293.38664945 4.87185811 284.99328212 4.87988281 276.59960938 C4.88685654 269.27532468 4.87250267 261.95142911 4.83356392 254.62723958 C4.81370323 250.75655623 4.80382492 246.88648197 4.81957626 243.01576614 C4.87825872 226.88937147 4.83686793 211.94479755 -2 197 C-2.61762459 195.5845414 -2.61762459 195.5845414 -3.24772644 194.14048767 C-4.18176857 192.07055062 -5.20153998 190.10458083 -6.3125 188.125 C-6.68858398 187.4343042 -7.06466797 186.7436084 -7.45214844 186.03198242 C-11.06162916 179.57161101 -15.30962761 173.72602031 -20 168 C-21.16595703 166.52080078 -21.16595703 166.52080078 -22.35546875 165.01171875 C-33.28460605 151.98179097 -50.93317758 142.32699337 -67.76953125 140.6171875 C-80.15095866 140.24085232 -89.20514243 143.60765467 -99 151 C-99.81984375 151.60199219 -100.6396875 152.20398438 -101.484375 152.82421875 C-115.30055092 164.7739237 -121.37002035 184.80105415 -125 202 C-125.16516113 202.76924805 -125.33032227 203.53849609 -125.50048828 204.33105469 C-133.38211734 243.0137967 -128.51834219 287.47487564 -109 322 C-106.86551674 325.22683645 -104.5762519 328.12227182 -102 331 C-101.401875 331.86625 -100.80375 332.7325 -100.1875 333.625 C-93.06743298 341.35535848 -82.52394799 347.32129335 -71.96875 348.2734375 C-60.29230639 348.61531535 -51.07771467 345.61816794 -42.0859375 338.0546875 C-29.78795532 325.94094476 -23.34078312 308.62530895 -20 292 C-16.71296693 295.84874125 -14.81733854 300.30470516 -12.75 304.875 C-12.37359375 305.66519531 -11.9971875 306.45539063 -11.609375 307.26953125 C-9.53376488 311.85571391 -8.22419988 315.03056726 -10 320 C-21.3246713 337.19764088 -38.96150308 350.0438593 -59 355 C-83.44996722 359.36167757 -105.2985157 354.31486513 -126 341 C-146.90057757 326.14224645 -161.47965209 303.77172524 -168.8125 279.375 C-169.10483521 278.40965332 -169.10483521 278.40965332 -169.40307617 277.42480469 C-172.5617056 266.2269135 -173.36489105 254.96390044 -173.3125 243.375 C-173.30686035 242.06047852 -173.3012207 240.74595703 -173.29541016 239.39160156 C-172.89904415 207.42330969 -162.60596627 177.92733605 -139.58081055 155.16064453 C-122.65208543 139.06886317 -99.40369948 132.40034652 -76.515625 132.71875 C-52.62591139 133.56290949 -30.2095408 142.47317171 -13.125 159.1875 C-12.55531494 159.73776855 -11.98562988 160.28803711 -11.39868164 160.85498047 C-7.25414375 165.11416589 -4.02053461 169.82726685 -0.76904297 174.7746582 C-0.30876205 175.470261 0.15151886 176.1658638 0.62574768 176.88254547 C1.75292873 178.58675873 2.87680008 180.29316026 4 182 C4.09439766 163.58575216 4.16443777 145.17156903 4.20724869 126.75712967 C4.22767505 118.20258639 4.25540199 109.64819535 4.30175781 101.09375 C4.34224908 93.61783116 4.36757644 86.14202275 4.37635398 78.66599727 C4.38146627 74.72548749 4.39303566 70.78529299 4.42292023 66.84488678 C4.58797922 44.21265382 2.81584309 22.49751448 0 0 Z " fill="#F4F2EE" transform="translate(948,242)"/>
<path d="M0 0 C16.17 0 32.34 0 49 0 C49.33 11.88 49.66 23.76 50 36 C54.228125 33.855 58.45625 31.71 62.8125 29.5 C73.32323044 24.22091813 83.85001018 19.16103201 94.80517578 14.86474609 C97.02418526 13.99047117 99.22805884 13.08343068 101.43359375 12.17578125 C126.0266794 2.33272426 158.00540361 -5.71189323 184 3 C185.02222656 3.32871094 186.04445313 3.65742188 187.09765625 3.99609375 C199.7337175 8.61280892 207.69794364 17.55522269 213.6875 29.3125 C219.99445727 47.03204661 219.14893945 65.34886006 219.19923019 83.91017914 C219.21118551 87.94303614 219.23041338 91.97579432 219.25234985 96.00860596 C219.31358512 107.46614953 219.36798853 118.92368624 219.40136719 130.38134766 C219.41995376 136.73449158 219.44917762 143.08750147 219.4893719 149.44054627 C219.51004553 152.77853238 219.52412839 156.1162069 219.52817917 159.45427704 C219.55045315 176.05791082 220.43669042 192.27351989 222.61864662 208.74010086 C223.17352176 213.48330516 223.56764206 218.24406266 224 223 C206.18 223 188.36 223 170 223 C170.54695567 218.07739894 171.09147444 213.18088653 171.74113464 208.27584839 C173.82893769 191.75078219 174.43912866 175.48899824 174.37004495 158.84355021 C174.35842977 155.36908032 174.3628595 151.89461933 174.36479187 148.4201355 C174.365664 142.60995545 174.35481181 136.79989451 174.33618164 130.98974609 C174.31489004 124.31211539 174.31154034 117.63465679 174.3177436 110.95699894 C174.3234663 104.45843029 174.31776645 97.959921 174.30657005 91.46136093 C174.30197659 88.72566483 174.30102681 85.99000565 174.3031559 83.25430679 C174.30352947 79.43522755 174.29082978 75.61640384 174.2746582 71.79736328 C174.27713562 70.68962555 174.27961304 69.58188782 174.28216553 68.44058228 C174.17090083 51.85858412 171.74717508 33.55342178 160.19921875 20.828125 C151.82728004 13.868858 140.60956234 12.17917587 130.09082031 12.79541016 C104.18873497 15.32996732 71.70597223 30.52935185 50 45 C49.54289908 47.57632468 49.54289908 47.57632468 49.61904907 50.64624023 C49.6105896 51.84829605 49.60213013 53.05035187 49.59341431 54.28883362 C49.59924858 55.628755 49.60539317 56.96867506 49.61181641 58.30859375 C49.60775219 59.71496489 49.60241116 61.12133283 49.59588623 62.5276947 C49.58215868 66.36192328 49.58754141 70.19591071 49.59702349 74.03014374 C49.60462778 78.06323387 49.59756903 82.09630356 49.59286499 86.12939453 C49.58739465 92.9289111 49.59461677 99.72833025 49.60888672 106.52783203 C49.6250584 114.3220445 49.62004433 122.11601962 49.6034075 129.91022587 C49.58963881 136.63590257 49.58795145 143.3615091 49.59572351 150.0871954 C49.60033722 154.08761891 49.60120677 158.0879325 49.59111404 162.08834839 C49.55170251 180.10567379 50.11869532 197.71969011 52.73093224 215.59512329 C53 218 53 218 53 223 C35.51 223 18.02 223 0 223 C0 217.65625762 0.11183491 213.38479309 0.9375 208.25 C2.78721361 196.68586453 3.15269894 185.20774159 3.16113281 173.51464844 C3.16577381 171.99518721 3.17080014 170.47572711 3.17617798 168.95626831 C3.18918613 164.86045715 3.19572479 160.76466228 3.20018864 156.66883373 C3.20314 154.09630053 3.20724859 151.52377157 3.21169281 148.95124054 C3.22534117 140.86317016 3.23501915 132.77510973 3.2388947 124.68702865 C3.24336022 115.42440161 3.26084908 106.16192325 3.2898953 96.89934134 C3.3116931 89.69198691 3.32160861 82.48467373 3.32293582 75.27728677 C3.3239716 70.99536399 3.32961079 66.7135814 3.34775543 62.43169403 C3.41926721 44.57981689 3.23503623 27.08863145 0.27018356 9.41882706 C-0.07848734 6.29733953 0 3.14090048 0 0 Z " fill="#F3F2EE" transform="translate(1237,375)"/>
<path d="M0 0 C0.680625 0.58523438 1.36125 1.17046875 2.0625 1.7734375 C3.02027344 2.53140625 3.97804688 3.289375 4.96484375 4.0703125 C8.29328819 6.84872183 10.96542216 9.98659389 13.625 13.3984375 C14.34224243 14.31713623 14.34224243 14.31713623 15.07397461 15.25439453 C24.67321431 27.89889894 27.83801035 42.14122677 26.0625 57.7734375 C24.91472758 62.13212697 23.29052153 65.86516769 21.0625 69.7734375 C20.48628906 70.80017578 20.48628906 70.80017578 19.8984375 71.84765625 C14.31575391 80.60145602 4.59751828 85.44749119 -5.1875 88.0234375 C-27.5956506 92.38057789 -49.39396848 83.69465136 -67.9375 71.7734375 C-71.4890636 69.31128061 -74.73820007 66.67611359 -77.9375 63.7734375 C-78.83984375 62.96390625 -79.7421875 62.154375 -80.671875 61.3203125 C-91.4255063 51.16080447 -98.23627974 39.36865505 -103.9375 25.7734375 C-104.2778125 25 -104.618125 24.2265625 -104.96875 23.4296875 C-106.81395856 18.98751876 -107.82365199 15.52643455 -106.9375 10.7734375 C-99.43022273 -2.45367008 -88.37248767 -10.57431682 -74.1875 -15.5390625 C-48.19184516 -21.03814333 -20.8437331 -17.22969873 0 0 Z " fill="#222222" transform="translate(1151.9375,406.2265625)"/>
<path d="M0 0 C13.86206897 0 13.86206897 0 18 3 C22.17613917 7.62761368 23.37196619 10.49464931 23.2734375 16.61328125 C22.80585676 20.69459313 21.54618421 22.73566126 19 26 C12.50153963 30.19692233 8.47755573 29 0 29 C0 19.43 0 9.86 0 0 Z " fill="#2E2E2E" transform="translate(933,874)"/>
<path d="M0 0 C13.86206897 0 13.86206897 0 18 3 C22.17613917 7.62761368 23.37196619 10.49464931 23.2734375 16.61328125 C22.80585676 20.69459313 21.54618421 22.73566126 19 26 C12.50153963 30.19692233 8.47755573 29 0 29 C0 19.43 0 9.86 0 0 Z " fill="#2E2E2E" transform="translate(851,831)"/>
<path d="M0 0 C3.58867947 0.07177359 4.13774084 0.39726919 7.125 2.8125 C10.29234879 6.84367118 10.37277987 9.07460945 10.4375 14.1875 C10.46328125 15.39921875 10.4890625 16.6109375 10.515625 17.859375 C10.07382246 22.67712653 8.61079909 26.01420091 5.1875 29.4375 C2.10368776 30.0675913 -0.72062117 29.99723668 -3.8125 29.4375 C-6.95850425 27.31876244 -7.61697119 26.85082139 -8.8125 23.4375 C-9.68495563 15.78868993 -9.8546364 9.17439401 -5.8125 2.4375 C-3.8125 0.4375 -3.8125 0.4375 0 0 Z " fill="#2A2A2A" transform="translate(998.8125,873.5625)"/>
<path d="M0 0 C2.98356441 1.81608269 4.61660986 2.93830422 5.8125 6.25 C5.874375 6.8275 5.93625 7.405 6 8 C4.68 8 3.36 8 2 8 C1.67 6.68 1.34 5.36 1 4 C-1.97 4 -4.94 4 -8 4 C-8.66 6.64 -9.32 9.28 -10 12 C-9.484375 11.649375 -8.96875 11.29875 -8.4375 10.9375 C-4.89178895 9.57376498 -2.6469862 10.04026679 1 11 C4 13 4 13 6 16 C6.44098934 20.34026351 5.69643859 23.81025074 3.5 27.5625 C-0.28307292 29.73776693 -3.75020497 29.90147167 -8 29 C-10.75569447 26.81840855 -12.43588747 25.12822506 -14 22 C-14.9769867 8.39733909 -14.9769867 8.39733909 -11 3 C-7.69662086 -0.53933479 -4.69425573 -0.57648755 0 0 Z " fill="#E1DFDC" transform="translate(1049,874)"/>
<path d="M0 0 C13 0 13 0 18 3 C20 6 20 6 19.8125 9.5 C18.99321626 13.02922225 18.5603063 13.73644079 16 16 C16.20496094 16.60328125 16.40992188 17.2065625 16.62109375 17.828125 C16.89050781 18.62734375 17.15992188 19.4265625 17.4375 20.25 C17.70433594 21.03890625 17.97117187 21.8278125 18.24609375 22.640625 C18.91954708 24.74821988 19.49150595 26.84753973 20 29 C18.68 29 17.36 29 16 29 C15.731875 28.21753906 15.46375 27.43507813 15.1875 26.62890625 C13.25894946 20.81706309 13.25894946 20.81706309 8.88671875 17.046875 C6.44372427 16.72856853 6.44372427 16.72856853 3 17 C3 20.96 3 24.92 3 29 C2.01 29 1.02 29 0 29 C0 19.43 0 9.86 0 0 Z " fill="#EBEAE6" transform="translate(959,831)"/>
<path d="M0 0 C1.65 0 3.3 0 5 0 C8.96 7.26 12.92 14.52 17 22 C17.33 14.74 17.66 7.48 18 0 C19.32 0 20.64 0 22 0 C22 9.57 22 19.14 22 29 C20.02 29 18.04 29 16 29 C12.37 22.07 8.74 15.14 5 8 C4.67 14.93 4.34 21.86 4 29 C2.68 29 1.36 29 0 29 C0 19.43 0 9.86 0 0 Z " fill="#DEDCD9" transform="translate(898,831)"/>
<path d="M0 0 C1.65 0 3.3 0 5 0 C6.42830852 3.80704999 7.85236055 7.61566157 9.27246094 11.42578125 C9.75631411 12.72211806 10.24133485 14.0180197 10.72753906 15.31347656 C11.42558589 17.17398505 12.11910947 19.03618865 12.8125 20.8984375 C13.44091797 22.57945557 13.44091797 22.57945557 14.08203125 24.29443359 C15 27 15 27 15 29 C13.68 29 12.36 29 11 29 C10.34 27.02 9.68 25.04 9 23 C4.71 23 0.42 23 -4 23 C-4.66 24.98 -5.32 26.96 -6 29 C-7.32 29 -8.64 29 -10 29 C-7.67685461 18.95516186 -3.83099184 9.54074406 0 0 Z " fill="#E5E4E0" transform="translate(1011,831)"/>
<path d="M0 0 C13.86206897 0 13.86206897 0 18 3 C22.17613917 7.62761368 23.37196619 10.49464931 23.2734375 16.61328125 C22.80585676 20.69459313 21.54618421 22.73566126 19 26 C12.50153963 30.19692233 8.47755573 29 0 29 C0 19.43 0 9.86 0 0 Z M3 3 C3 10.59 3 18.18 3 26 C11.79197617 26.33150617 11.79197617 26.33150617 18 22 C20.07594721 17.84810558 19.33621434 12.54658596 18.375 8.125 C16.36388373 5.01691122 14.47477918 4.22260749 11 3 C8.36 3 5.72 3 3 3 Z " fill="#EAE8E4" transform="translate(933,874)"/>
<path d="M0 0 C13.86206897 0 13.86206897 0 18 3 C22.17613917 7.62761368 23.37196619 10.49464931 23.2734375 16.61328125 C22.80585676 20.69459313 21.54618421 22.73566126 19 26 C12.50153963 30.19692233 8.47755573 29 0 29 C0 19.43 0 9.86 0 0 Z M3 3 C3 10.59 3 18.18 3 26 C11.79197617 26.33150617 11.79197617 26.33150617 18 22 C20.07594721 17.84810558 19.33621434 12.54658596 18.375 8.125 C16.36388373 5.01691122 14.47477918 4.22260749 11 3 C8.36 3 5.72 3 3 3 Z " fill="#EAE8E4" transform="translate(851,831)"/>
<path d="M0 0 C3.48838014 1.44085267 4.65202911 2.28748818 6.3125 5.6875 C6.6528125 6.8321875 6.6528125 6.8321875 7 8 C5.68 8 4.36 8 3 8 C2.38125 7.34 1.7625 6.68 1.125 6 C-0.90467256 3.68160913 -0.90467256 3.68160913 -4.1875 3.6875 C-6.90076459 3.69253291 -6.90076459 3.69253291 -8 5 C-8.04063832 6.66617115 -8.042721 8.33388095 -8 10 C-7.18015625 10.24234375 -6.3603125 10.4846875 -5.515625 10.734375 C-4.43796875 11.06953125 -3.3603125 11.4046875 -2.25 11.75 C-1.18265625 12.07484375 -0.1153125 12.3996875 0.984375 12.734375 C4.17762188 14.07454597 5.84054436 15.31735083 8 18 C8.75187617 21.92646445 8.32320201 23.48733474 6.1875 26.875 C1.54662428 29.96891715 -2.57532072 29.87967772 -8 29 C-11.125 27.3125 -11.125 27.3125 -13 25 C-13.8125 22.25 -13.8125 22.25 -14 20 C-12.68 20 -11.36 20 -10 20 C-9.71125 20.639375 -9.4225 21.27875 -9.125 21.9375 C-8.17176549 24.15206079 -8.17176549 24.15206079 -6 25 C-1.34724024 25.3052622 -1.34724024 25.3052622 3 24 C3 22.35 3 20.7 3 19 C-0.22577342 17.26909719 -3.14222764 15.96142979 -6.6875 15 C-11.5083004 13.54466403 -11.5083004 13.54466403 -13 11 C-13.5 7.5625 -13.5 7.5625 -13 4 C-9.35283441 -0.44498306 -5.40133172 -0.89657733 0 0 Z " fill="#E3E1DD" transform="translate(900,874)"/>
<path d="M0 0 C6.27 0 12.54 0 19 0 C19 0.99 19 1.98 19 3 C14.05 3 9.1 3 4 3 C4 6.3 4 9.6 4 13 C8.29 13 12.58 13 17 13 C17 13.99 17 14.98 17 16 C12.71 16 8.42 16 4 16 C4 19.3 4 22.6 4 26 C8.95 26 13.9 26 19 26 C19 26.99 19 27.98 19 29 C12.73 29 6.46 29 0 29 C0 19.43 0 9.86 0 0 Z " fill="#E7E5E2" transform="translate(829,831)"/>
<path d="M0 0 C2.9375 1.1875 2.9375 1.1875 5 3 C5.8125 5.6875 5.8125 5.6875 6 8 C5.01 8 4.02 8 3 8 C2.401875 7.34 1.80375 6.68 1.1875 6 C-0.89667046 3.70489364 -0.89667046 3.70489364 -4.125 3.625 C-7.12575284 3.719279 -7.12575284 3.719279 -9 6 C-9.13834658 8.07063047 -9.13834658 8.07063047 -8 10 C-5.32756042 11.26111927 -5.32756042 11.26111927 -2.125 12.0625 C4.92924186 14.04278717 4.92924186 14.04278717 7 17 C7.55595912 19.70348746 7.43172844 22.2789747 7 25 C5.45661909 27.17476401 4.36334727 27.81832637 2 29 C-2.82801179 29.52125437 -6.75327778 29.68696938 -11.0625 27.3125 C-13.1742292 24.79204902 -13.72960418 23.24474984 -14 20 C-11.1225645 20.41106221 -10.15022686 20.8290522 -8.1875 23.0625 C-6.03127875 25.36023951 -6.03127875 25.36023951 -2.375 25.3125 C0.86582325 25.21827345 0.86582325 25.21827345 3 24 C3 22.35 3 20.7 3 19 C-0.22577342 17.26909719 -3.14222764 15.96142979 -6.6875 15 C-11.5083004 13.54466403 -11.5083004 13.54466403 -13 11 C-13.5 7.5625 -13.5 7.5625 -13 4 C-9.35190683 -0.44611355 -5.40188849 -0.89485829 0 0 Z " fill="#E9E7E3" transform="translate(1084,831)"/>
<path d="M0 0 C3.22496917 1.80598274 4.562675 2.78894616 5.8125 6.25 C5.874375 6.8275 5.93625 7.405 6 8 C1.32392638 7.36809816 1.32392638 7.36809816 -0.375 5.4375 C-2.06821799 3.67622568 -2.06821799 3.67622568 -5.375 3.5 C-9.06128228 3.75122061 -9.06128228 3.75122061 -11.9375 5.875 C-14.82553518 10.25081088 -14.79656253 13.89361494 -14 19 C-12.83567931 21.48050929 -11.90574048 23.09425952 -10 25 C-4.7073729 25.5628208 -4.7073729 25.5628208 -0.0625 23.625 C1.05923484 21.97750576 1.05923484 21.97750576 2 20 C3.32 20 4.64 20 6 20 C5.4568634 23.80195622 3.84334437 25.50130343 1 28 C-2.72916397 29.86458199 -6.93961304 29.56048286 -11 29 C-14.91228502 27.0120503 -17.34243334 24.02766197 -19 20 C-19.83868746 14.10740367 -18.96210779 9.20922405 -16 4 C-11.76480456 -1.16164444 -6.20366488 -0.93148121 0 0 Z " fill="#E3E1DD" transform="translate(950,831)"/>
<path d="M0 0 C3.58867947 0.07177359 4.13774084 0.39726919 7.125 2.8125 C10.29234879 6.84367118 10.37277987 9.07460945 10.4375 14.1875 C10.46328125 15.39921875 10.4890625 16.6109375 10.515625 17.859375 C10.07382246 22.67712653 8.61079909 26.01420091 5.1875 29.4375 C2.10368776 30.0675913 -0.72062117 29.99723668 -3.8125 29.4375 C-6.95850425 27.31876244 -7.61697119 26.85082139 -8.8125 23.4375 C-9.68495563 15.78868993 -9.8546364 9.17439401 -5.8125 2.4375 C-3.8125 0.4375 -3.8125 0.4375 0 0 Z M-3.625 4.625 C-6.64047122 9.22756133 -6.31818942 15.14061762 -5.8125 20.4375 C-4.64817931 22.91800929 -3.71824048 24.53175952 -1.8125 26.4375 C0.55874598 27.02238562 0.55874598 27.02238562 3.1875 26.4375 C6.83139537 22.79360463 7.47285627 19.99256184 7.625 14.875 C7.44801933 10.6788455 7.28049258 7.53049258 4.1875 4.4375 C0.13653892 3.06163612 0.13653892 3.06163612 -3.625 4.625 Z " fill="#EAE8E4" transform="translate(998.8125,873.5625)"/>
<path d="M0 0 C3.5060303 0.86943897 4.94966563 2.56083702 6.9375 5.48046875 C7.68687649 9.09110091 7.6075612 11.27984715 5.79296875 14.53125 C2.68717104 18.88264468 -0.82349918 22.25075384 -5.0625 25.48046875 C-0.7725 25.81046875 3.5175 26.14046875 7.9375 26.48046875 C7.9375 27.47046875 7.9375 28.46046875 7.9375 29.48046875 C1.3375 29.48046875 -5.2625 29.48046875 -12.0625 29.48046875 C-12.0625 28.16046875 -12.0625 26.84046875 -12.0625 25.48046875 C-10.015625 23.515625 -10.015625 23.515625 -7.3125 21.54296875 C-3.62468041 18.83101955 -0.65609603 16.28401028 1.9375 12.48046875 C2.35521804 8.8124706 2.35521804 8.8124706 1.9375 5.48046875 C0.81215895 4.12428376 0.81215895 4.12428376 -2.125 4.41796875 C-3.5790625 4.44890625 -3.5790625 4.44890625 -5.0625 4.48046875 C-6.0525 6.46046875 -7.0425 8.44046875 -8.0625 10.48046875 C-9.3825 10.48046875 -10.7025 10.48046875 -12.0625 10.48046875 C-11.7715874 7.08648841 -11.03966583 5.44933124 -9 2.66796875 C-5.69076388 0.20364398 -4.02651035 -0.28216076 0 0 Z " fill="#E7E5E1" transform="translate(1024.0625,873.51953125)"/>
<path d="M0 0 C3 1.5 3 1.5 5 4 C5.71294056 9.61440691 5.28270192 12.31250546 2 17 C-0.86896156 19.83923139 -3.92837127 22.37353485 -7 25 C-0.07 25.495 -0.07 25.495 7 26 C7 26.99 7 27.98 7 29 C0.07 29 -6.86 29 -14 29 C-12.8137244 24.25489762 -10.7491556 22.82600778 -7.0625 20 C-2.05603444 16.29141976 -2.05603444 16.29141976 1 11 C1.33374277 8.41583753 1.33374277 8.41583753 1 6 C-0.82703227 3.7508092 -0.82703227 3.7508092 -3.5 3.75 C-6.17296773 3.7508092 -6.17296773 3.7508092 -8 6 C-8.6425235 8.06874034 -8.6425235 8.06874034 -9 10 C-10.32 10 -11.64 10 -13 10 C-12.69750921 6.67260127 -12.28765829 4.4372406 -10.4375 1.625 C-7.0121384 -0.6585744 -3.93361501 -0.74777632 0 0 Z " fill="#E9E7E3" transform="translate(980,874)"/>
<path d="M0 0 C5.94 0 11.88 0 18 0 C18 0.99 18 1.98 18 3 C13.05 3 8.1 3 3 3 C3 6.3 3 9.6 3 13 C7.62 13 12.24 13 17 13 C17 13.99 17 14.98 17 16 C12.38 16 7.76 16 3 16 C3 19.3 3 22.6 3 26 C7.95 26 12.9 26 18 26 C18 26.99 18 27.98 18 29 C12.06 29 6.12 29 0 29 C0 19.43 0 9.86 0 0 Z " fill="#F1EFEB" transform="translate(866,874)"/>
<path d="M0 0 C5.94 0 11.88 0 18 0 C18 0.99 18 1.98 18 3 C13.05 3 8.1 3 3 3 C3 6.3 3 9.6 3 13 C7.62 13 12.24 13 17 13 C17 13.99 17 14.98 17 16 C12.38 16 7.76 16 3 16 C3 19.3 3 22.6 3 26 C7.95 26 12.9 26 18 26 C18 26.99 18 27.98 18 29 C12.06 29 6.12 29 0 29 C0 19.43 0 9.86 0 0 Z " fill="#F1EFEB" transform="translate(1050,831)"/>
<path d="M0 0 C5.94 0 11.88 0 18 0 C18 0.99 18 1.98 18 3 C13.05 3 8.1 3 3 3 C3 6.3 3 9.6 3 13 C7.62 13 12.24 13 17 13 C17 13.99 17 14.98 17 16 C12.38 16 7.76 16 3 16 C3 19.3 3 22.6 3 26 C7.95 26 12.9 26 18 26 C18 26.99 18 27.98 18 29 C12.06 29 6.12 29 0 29 C0 19.43 0 9.86 0 0 Z " fill="#F1EFEB" transform="translate(982,831)"/>
<path d="M0 0 C5.94 0 11.88 0 18 0 C18 0.99 18 1.98 18 3 C13.05 3 8.1 3 3 3 C3 6.3 3 9.6 3 13 C7.62 13 12.24 13 17 13 C17 13.99 17 14.98 17 16 C12.38 16 7.76 16 3 16 C3 19.3 3 22.6 3 26 C7.95 26 12.9 26 18 26 C18 26.99 18 27.98 18 29 C12.06 29 6.12 29 0 29 C0 19.43 0 9.86 0 0 Z " fill="#F1EFEB" transform="translate(877,831)"/>
<path d="M0 0 C7.59 0 15.18 0 23 0 C23 1.32 23 2.64 23 4 C20.03 4 17.06 4 14 4 C14 12.25 14 20.5 14 29 C12.68 29 11.36 29 10 29 C10 20.42 10 11.84 10 3 C6.7 3 3.4 3 0 3 C0 2.01 0 1.02 0 0 Z " fill="#DCDAD6" transform="translate(908,874)"/>
<path d="M0 0 C7.59 0 15.18 0 23 0 C23 0.99 23 1.98 23 3 C19.7 3 16.4 3 13 3 C13 11.58 13 20.16 13 29 C12.01 29 11.02 29 10 29 C10 20.42 10 11.84 10 3 C6.7 3 3.4 3 0 3 C0 2.01 0 1.02 0 0 Z " fill="#F0EEEA" transform="translate(1025,831)"/>
<path d="M0 0 C1.588125 -0.061875 3.17625 -0.12375 4.8125 -0.1875 C6.15248047 -0.23970703 6.15248047 -0.23970703 7.51953125 -0.29296875 C10 0 10 0 11.80078125 1.35546875 C13.50731102 3.69569361 13.42408618 5.1727588 13 8 C11.80078125 9.64453125 11.80078125 9.64453125 10 11 C7.51953125 11.29296875 7.51953125 11.29296875 4.8125 11.1875 C3.224375 11.125625 1.63625 11.06375 0 11 C0 7.37 0 3.74 0 0 Z " fill="#353535" transform="translate(962,834)"/>
<path d="M0 0 C2.31282587 3.46923881 2.42478586 4.92205575 2 9 C0.875 10.875 0.875 10.875 -1 12 C-4 12.4375 -4 12.4375 -7 12 C-9.35210784 9.88310295 -9.91810953 8.55958485 -10.375 5.4375 C-10 3 -10 3 -8.9375 1.1875 C-5.91496844 -0.66501934 -3.45067281 -0.37643703 0 0 Z " fill="#272727" transform="translate(1049,888)"/>
<path d="M0 0 C2.04650391 3.06975587 2.99704565 5.69084152 4.125 9.1875 C4.47820313 10.27417969 4.83140625 11.36085938 5.1953125 12.48046875 C5.46085938 13.31191406 5.72640625 14.14335938 6 15 C2.37 15 -1.26 15 -5 15 C-1.85714286 4.28571429 -1.85714286 4.28571429 0 0 Z " fill="#373737" transform="translate(1013,835)"/>
</svg>
